<svg width="1600" height="1000" viewBox="0 0 1600 1000" xmlns="http://www.w3.org/2000/svg" role="img" aria-label="Project placeholder">
  <defs>
    <linearGradient id="g" x1="0" y1="0" x2="1" y2="1">
      <stop offset="0" stop-color="#9cd1ff" stop-opacity="0.9" />
      <stop offset="1" stop-color="#b9ffb5" stop-opacity="0.85" />
    </linearGradient>
    <radialGradient id="r" cx="30%" cy="18%" r="90%">
      <stop offset="0" stop-color="#ffffff" stop-opacity="0.28" />
      <stop offset="1" stop-color="#0b0f14" stop-opacity="0.0" />
    </radialGradient>
    <pattern id="noise" width="10" height="10" patternUnits="userSpaceOnUse">
      <rect width="10" height="10" fill="#0b0f14" opacity="0.0" />
      <circle cx="2" cy="3" r="0.9" fill="#0b0f14" opacity="0.08" />
      <circle cx="7" cy="5" r="0.7" fill="#0b0f14" opacity="0.06" />
      <circle cx="4" cy="8" r="0.6" fill="#0b0f14" opacity="0.05" />
    </pattern>
  </defs>
  <rect x="0" y="0" width="1600" height="1000" fill="#0b0f14" />
  <rect x="0" y="0" width="1600" height="1000" fill="url(#g)" opacity="0.18" />
  <rect x="0" y="0" width="1600" height="1000" fill="url(#r)" />
  <rect x="0" y="0" width="1600" height="1000" fill="url(#noise)" />
  <g opacity="0.25">
    <path d="M80 200 C 420 140, 520 340, 860 280 C 1220 220, 1320 420, 1520 360" fill="none" stroke="#ffffff" stroke-width="2" />
    <path d="M60 760 C 420 660, 540 880, 900 800 C 1240 730, 1360 910, 1540 850" fill="none" stroke="#ffffff" stroke-width="2" />
  </g>
  <g>
    <rect x="90" y="90" width="1420" height="820" rx="40" fill="#0b0f14" opacity="0.65" stroke="#ffffff" stroke-opacity="0.18" />
    <g opacity="0.85">
      <circle cx="170" cy="150" r="10" fill="#ff6b6b" />
      <circle cx="210" cy="150" r="10" fill="#ffd93d" />
      <circle cx="250" cy="150" r="10" fill="#6bff95" />
    </g>
    <text x="140" y="265" fill="#e8eef6" font-family="ui-monospace, SFMono-Regular, Menlo, Monaco, Consolas, 'Liberation Mono', 'Courier New', monospace" font-size="26" opacity="0.75">
      Screenshot placeholder
    </text>
    <text x="140" y="330" fill="#e8eef6" font-family="'Iowan Old Style','Palatino Linotype','Hiragino Mincho ProN','Yu Mincho', ui-serif, serif" font-size="64">
      Your Work Title
    </text>
    <text x="140" y="390" fill="#e8eef6" font-family="ui-sans-serif, system-ui, -apple-system, 'Segoe UI', Roboto, 'Noto Sans JP', 'Hiragino Sans', 'Hiragino Kaku Gothic ProN', Meiryo, Arial" font-size="28" opacity="0.78">
      Replace this with a real screenshot when ready.
    </text>
  </g>
</svg>

